HIERARCHY
ROOT SimulationBone
{
	OFFSET 0.000000 0.000000 0.000000
	CHANNELS 6 Xposition Yposition Zposition Zrotation Yrotation Xrotation 
	JOINT Hips
	{
		OFFSET 0.000000 0.000000 0.000000
		CHANNELS 6 Xposition Yposition Zposition Zrotation Yrotation Xrotation 
		JOINT LeftUpLeg
		{
			OFFSET 0.103458 1.857831 10.548500
			CHANNELS 3 Zrotation Yrotation Xrotation
			JOINT LeftLeg
			{
				OFFSET 43.500000 -0.000027 -0.000013
				CHANNELS 3 Zrotation Yrotation Xrotation
				JOINT LeftFoot
				{
					OFFSET 42.372196 0.000031 0.000011
					CHANNELS 3 Zrotation Yrotation Xrotation
					JOINT LeftToe
					{
						OFFSET 17.299994 -0.000003 -0.000004
						CHANNELS 3 Zrotation Yrotation Xrotation
						End Site
						{
							OFFSET 0.000000 0.000000 0.000000
						}
					}
				}
			}
		}
		JOINT RightUpLeg
		{
			OFFSET 0.103455 1.857826 -10.548502
			CHANNELS 3 Zrotation Yrotation Xrotation
			JOINT RightLeg
			{
				OFFSET 43.500038 -0.000023 0.000010
				CHANNELS 3 Zrotation Yrotation Xrotation
				JOINT RightFoot
				{
					OFFSET 42.372261 0.000004 0.000006
					CHANNELS 3 Zrotation Yrotation Xrotation
					JOINT RightToe
					{
						OFFSET 17.299988 -0.000008 0.000010
						CHANNELS 3 Zrotation Yrotation Xrotation
						End Site
						{
							OFFSET 0.000000 0.000000 0.000000
						}
					}
				}
			}
		}
		JOINT Spine
		{
			OFFSET 6.901968 -2.603722 -0.000004
			CHANNELS 3 Zrotation Yrotation Xrotation
			JOINT Spine1
			{
				OFFSET 12.588099 -0.000002 0.000005
				CHANNELS 3 Zrotation Yrotation Xrotation
				JOINT Spine2
				{
					OFFSET 12.343202 -0.000017 -0.000005
					CHANNELS 3 Zrotation Yrotation Xrotation
					JOINT Neck
					{
						OFFSET 25.832903 0.000008 0.000008
						CHANNELS 3 Zrotation Yrotation Xrotation
						JOINT Head
						{
							OFFSET 11.766607 0.000004 -0.000001
							CHANNELS 3 Zrotation Yrotation Xrotation
							End Site
							{
								OFFSET 0.000000 0.000000 0.000000
							}
						}
					}
					JOINT LeftShoulder
					{
						OFFSET 19.745907 -1.480366 6.000107
						CHANNELS 3 Zrotation Yrotation Xrotation
						JOINT LeftArm
						{
							OFFSET 11.284126 -0.000031 -0.000025
							CHANNELS 3 Zrotation Yrotation Xrotation
							JOINT LeftForeArm
							{
								OFFSET 33.000050 0.000011 0.000029
								CHANNELS 3 Zrotation Yrotation Xrotation
								JOINT LeftHand
								{
									OFFSET 25.200008 0.000009 0.000011
									CHANNELS 3 Zrotation Yrotation Xrotation
									End Site
									{
										OFFSET 0.000000 0.000000 0.000000
									}
								}
							}
						}
					}
					JOINT RightShoulder
					{
						OFFSET 19.746094 -1.480364 -6.000070
						CHANNELS 3 Zrotation Yrotation Xrotation
						JOINT RightArm
						{
							OFFSET 11.284145 -0.000017 -0.000020
							CHANNELS 3 Zrotation Yrotation Xrotation
							JOINT RightForeArm
							{
								OFFSET 33.000088 0.000019 0.000022
								CHANNELS 3 Zrotation Yrotation Xrotation
								JOINT RightHand
								{
									OFFSET 25.199780 0.000137 0.000414
									CHANNELS 3 Zrotation Yrotation Xrotation
									End Site
									{
										OFFSET 0.000000 0.000000 0.000000
									}
								}
							}
						}
					}
				}
			}
		}
	}
}
MOTION
Frames: 13
Frame Time: 0.016667
-20.479222 0.000000 487.149649 0.000000 -78.537807 0.000000 -3.481615 87.435997 0.331334 96.010617 2.258205 -178.147692 153.127021 -10.576896 170.251658 -51.156234 -3.606432 -12.750356 86.935180 7.718429 -7.066046 21.454558 0.003112 0.000017 160.576450 6.204698 -160.806641 -38.448408 -0.821373 2.654478 87.967201 -0.330344 8.647223 21.454551 -0.003091 -0.000001 13.664248 1.220627 -0.322047 17.314721 2.475683 -0.457665 16.996323 2.472736 -0.472621 11.679535 -13.631965 0.989523 -18.131109 -2.540078 -0.444413 110.285094 -69.875940 69.963394 -25.971141 50.971802 13.919462 -39.741414 -19.809456 1.792186 11.373721 -9.232699 13.910491 130.403716 78.676998 -48.859788 -17.919233 -48.920809 -21.843827 -61.291958 19.964178 -2.488429 8.264393 9.802954 -14.678688 
-20.164246 0.000000 486.218912 0.000000 -77.821490 0.000000 -3.346073 87.500267 0.088518 96.110250 2.192245 -178.549316 154.500055 -10.810209 171.174430 -53.321239 -3.649000 -12.222279 88.305862 7.378488 -7.218656 21.454559 0.003109 0.000018 160.642864 6.874956 -160.797001 -37.824176 -0.710181 2.661911 87.538598 -0.151550 9.535928 21.454551 -0.003086 -0.000002 13.496057 1.391259 -0.399431 16.977098 2.826045 -0.590260 16.658600 2.822310 -0.607341 11.344567 -12.875342 1.026140 -18.175969 -3.174097 -0.072306 109.143298 -70.096074 71.087997 -25.893719 51.371140 13.757786 -40.499609 -19.543500 1.797216 11.015290 -8.253741 15.867077 132.365528 78.656287 -46.881834 -16.948596 -48.192954 -22.887813 -60.702067 20.172154 -2.480376 8.534474 9.561167 -14.369883 
-19.820819 0.000000 485.273633 0.000000 -77.121693 0.000000 -3.178928 87.523987 -0.119610 96.254027 2.242943 -178.972538 156.105121 -11.088107 172.051782 -55.099415 -3.716321 -11.989808 89.481501 7.246199 -7.345022 21.454557 0.003105 0.000017 160.736481 7.402305 -160.887333 -37.229523 -0.557578 2.728597 87.113823 -0.044013 10.229623 21.454551 -0.003086 -0.000001 13.329806 1.582026 -0.477411 16.643120 3.216247 -0.722170 16.324507 3.211709 -0.741615 10.890504 -12.176259 1.053259 -17.963618 -3.687490 0.217458 107.747536 -70.409282 72.457212 -25.996500 51.880914 13.863510 -41.238352 -19.524729 1.814520 11.081484 -7.431427 16.953834 134.081677 78.569893 -45.156347 -16.121668 -47.447196 -23.754050 -60.122848 20.438757 -2.476335 8.841028 9.237368 -14.181512 
-19.451024 0.000000 484.315558 0.000000 -76.439031 0.000000 -2.977922 87.522217 -0.293974 96.430637 2.354829 -179.412574 157.959568 -11.403517 172.804989 -56.449174 -3.762776 -11.972080 90.540687 7.264904 -7.444076 21.454553 0.003101 0.000016 160.859853 7.846895 -161.030802 -36.647143 -0.395002 2.821303 86.672872 0.029988 10.805925 21.454550 -0.003089 0.000000 13.160729 1.779330 -0.562449 16.302945 3.620131 -0.868510 15.984201 3.614694 -0.890399 10.428402 -11.557754 1.070047 -17.617866 -4.097529 0.440627 106.297098 -70.727755 73.879457 -26.130275 52.417980 14.113290 -41.987509 -19.621535 1.840943 11.353939 -6.752967 17.481799 135.625473 78.462598 -43.605664 -15.503669 -46.733584 -24.425813 -59.509956 20.750981 -2.474370 9.168135 8.934970 -14.112971 
-19.056943 0.000000 483.346428 0.000000 -75.774084 0.000000 -2.740675 87.510017 -0.435425 96.630950 2.472034 -179.864892 160.082340 -11.743705 173.355092 -57.328447 -3.733783 -12.090834 91.561806 7.378543 -7.518034 21.454551 0.003098 0.000016 161.016396 8.268799 -161.180320 -36.059955 -0.253220 2.906241 86.197102 0.109686 11.341825 21.454551 -0.003093 0.000001 12.984058 1.969523 -0.660961 15.946656 4.011309 -1.044230 15.627770 4.004797 -1.068482 10.068772 -11.042999 1.078631 -17.263472 -4.420028 0.615588 105.026996 -70.970485 75.127406 -26.146095 52.898621 14.385312 -42.775718 -19.702442 1.869727 11.628282 -6.194520 17.752954 137.093845 78.376859 -42.128504 -15.155368 -46.102502 -24.891254 -58.818904 21.095801 -2.472275 9.500408 8.757581 -14.162289 
-18.640659 0.000000 482.367989 0.000000 -75.127399 0.000000 -2.466048 87.486981 -0.548572 96.851783 2.567013 179.673600 162.481652 -12.081244 173.679559 -57.687112 -3.588838 -12.309341 92.594146 7.568798 -7.485992 21.454551 0.003099 0.000017 161.193818 8.708629 -161.286422 -35.489586 -0.161709 2.950531 85.688263 0.231298 11.903141 21.454552 -0.003097 -0.000000 12.797051 2.143907 -0.775016 15.568524 4.372549 -1.254773 15.249495 4.364761 -1.281204 9.893145 -10.621651 1.083825 -17.004904 -4.673943 0.767178 104.123941 -71.085687 76.019792 -25.942955 53.262086 14.595858 -43.605651 -19.678699 1.893010 11.751680 -5.734701 17.994929 138.626392 78.333637 -40.582172 -15.102458 -45.580384 -25.142866 -58.023504 21.451350 -2.467274 9.817141 8.760190 -14.313232 
-18.204254 0.000000 481.381983 0.000000 -74.499491 0.000000 -2.157856 87.390839 -0.653409 97.104991 2.726911 179.201888 165.116231 -12.360793 173.983578 -57.442730 -3.365278 -12.753138 93.574233 7.961180 -6.925347 21.454553 0.003104 0.000018 161.315585 9.129593 -161.291844 -35.111604 -0.146800 2.926450 85.226410 0.413407 12.513443 21.454553 -0.003095 -0.000001 12.605083 2.313832 -0.889487 15.179807 4.724303 -1.468234 14.860636 4.715221 -1.496790 9.868367 -10.149253 1.093369 -16.863254 -4.893498 0.940371 103.462398 -71.113912 76.678726 -25.606708 53.543084 14.811788 -44.381103 -19.631862 1.912188 11.744893 -5.365728 18.158109 140.459503 78.273217 -38.732209 -15.238734 -45.098990 -25.180777 -57.171694 21.760472 -2.456516 10.077807 8.802791 -14.497481 
-17.749812 0.000000 480.390155 0.000000 -73.890842 0.000000 -1.816270 87.182864 -0.764270 97.397259 3.011937 178.728262 167.943571 -12.547817 174.420381 -56.483394 -3.086088 -13.464337 94.426400 8.595306 -5.578276 21.454555 0.003112 0.000016 161.335515 9.504165 -161.180767 -35.040452 -0.210305 2.832167 84.856656 0.645627 13.135121 21.454553 -0.003086 -0.000000 12.412974 2.486974 -0.995115 14.790545 5.080694 -1.664951 14.471231 5.070410 -1.695670 9.935229 -9.484443 1.109874 -16.827002 -5.129717 1.176916 102.878538 -71.102379 77.263617 -25.236605 53.789406 15.112379 -45.019172 -19.658368 1.932860 11.669415 -5.088135 18.155102 142.670960 78.117434 -36.505117 -15.436614 -44.586689 -25.005369 -56.342553 21.969123 -2.440152 10.239954 8.730471 -14.635258 
-17.279415 0.000000 479.394248 0.000000 -73.301904 0.000000 -1.425273 86.980377 -0.856463 97.714741 3.257773 178.298645 170.973992 -12.644396 174.689219 -54.606952 -2.662735 -13.993982 95.084627 9.074118 -4.215588 21.454558 0.003118 0.000014 161.390936 9.919599 -161.106104 -34.992906 -0.258162 2.764130 84.403488 0.825222 13.526520 21.454553 -0.003080 0.000001 12.215064 2.635711 -1.123053 14.388019 5.390563 -1.910824 14.068592 5.378780 -1.943424 10.043625 -8.632313 1.116206 -16.836655 -5.484966 1.486948 102.428096 -71.047871 77.719203 -24.801205 54.005409 15.476854 -45.584668 -19.744134 1.955990 11.582917 -4.920750 18.018999 144.755106 77.818970 -34.415217 -15.604448 -44.057851 -24.622662 -55.662735 22.071150 -2.422363 10.270663 8.526747 -14.647324 
-16.795145 0.000000 478.396006 0.000000 -72.733101 0.000000 -0.981090 86.877021 -0.912548 98.046922 3.326051 177.974953 174.205332 -12.639648 174.598445 -51.634603 -2.092195 -13.910924 95.590175 9.020917 -3.958821 21.454559 0.003117 0.000016 161.598294 10.462518 -161.184773 -34.726633 -0.205290 2.808550 83.719045 0.874657 13.555174 21.454552 -0.003086 0.000001 12.007294 2.738998 -1.304594 13.962572 5.615355 -2.270878 13.643101 5.601394 -2.304831 10.115300 -7.663912 1.104728 -16.801491 -5.996954 1.850920 102.101354 -70.959230 78.054467 -24.288491 54.214052 15.797614 -46.167385 -19.844401 1.980414 11.518410 -4.880233 17.887866 146.274206 77.397436 -32.904513 -15.716223 -43.566568 -24.049275 -55.229708 22.089250 -2.407861 10.160266 8.259378 -14.498800 
-16.299086 0.000000 477.397173 0.000000 -72.184825 0.000000 -0.540087 86.715683 -0.986068 98.391043 3.409959 177.853303 177.531465 -12.590896 174.844674 -47.585534 -1.732739 -13.399428 96.554545 8.509201 -6.240581 21.454560 0.003113 0.000018 161.813861 11.102099 -161.228938 -34.558991 -0.100321 2.913283 82.997056 0.917081 13.727712 21.454553 -0.003094 -0.000000 11.802543 2.838376 -1.531876 13.540107 5.836464 -2.723560 13.220621 5.819772 -2.758840 9.952908 -6.768233 1.124954 -16.547670 -6.392706 2.161948 101.404612 -70.938171 78.752700 -23.894209 54.558296 15.719790 -46.810649 -19.902324 2.004489 11.409994 -4.956790 18.198445 147.551208 77.052718 -31.632280 -15.968842 -43.236118 -23.344925 -54.976680 22.113202 -2.400324 9.987000 8.192703 -14.335348 
-15.793320 0.000000 476.399493 0.000000 -71.657444 0.000000 -0.146183 86.370216 -1.112185 98.748871 3.654218 177.983038 -179.279471 -12.585146 176.003737 -42.831553 -1.917919 -12.791613 98.449035 7.860444 -11.491770 21.454558 0.003110 0.000018 161.911962 11.803504 -161.041716 -34.775110 -0.033741 2.989517 82.466456 1.085507 14.450691 21.454553 -0.003094 -0.000001 11.614355 2.961375 -1.786982 13.148090 6.106586 -3.229323 12.828587 6.086843 -3.266232 9.439534 -6.100905 1.217704 -15.993449 -6.419537 2.333361 100.014948 -71.040504 80.130318 -23.799320 55.109976 14.978061 -47.508861 -19.879717 2.025420 11.194334 -5.132555 19.212299 149.115603 76.937647 -30.051320 -16.576423 -43.159896 -22.549475 -54.770859 22.228124 -2.400417 9.828809 8.540092 -14.299136 
-15.279930 0.000000 475.404708 0.000000 -71.151300 0.000000 0.256904 86.089081 -1.172951 99.155586 3.683179 178.180884 -176.877625 -12.417494 177.318650 -38.963230 -2.580386 -12.211073 100.340198 7.444658 -15.727557 21.454557 0.003110 0.000018 162.085416 12.639107 -160.681717 -34.970848 -0.136075 2.946613 82.147797 1.303866 15.102592 21.454553 -0.003089 -0.000000 11.443372 3.016131 -2.049586 12.790076 6.240292 -3.757621 12.470674 6.217366 -3.795323 8.891313 -5.568183 1.351307 -15.525621 -6.213725 2.447019 98.844548 -71.083517 81.293974 -23.874194 55.528097 13.949832 -48.108682 -19.825138 2.040572 10.927416 -5.394429 20.189597 151.454416 76.866903 -27.679299 -17.583981 -43.253702 -21.586839 -54.380906 22.433659 -2.400918 9.667320 9.118755 -14.330917 
